<svg width="39" height="26" viewBox="0 0 39 26" fill="none" xmlns="http://www.w3.org/2000/svg">
<path d="M1.59704 14.2122C1.1111 14.4549 0.539618 14.1015 0.539618 13.5583V8.23494C0.539618 7.97563 0.677019 7.73573 0.900689 7.60452L13.3407 0.307074C13.8279 0.0212557 14.4414 0.372612 14.4414 0.937494V7.34595C14.4414 7.62291 14.2848 7.87608 14.0371 7.99983L1.59704 14.2122Z" fill="#00A385"/>
<path d="M0.900621 14.2257C0.676951 14.0945 0.539551 13.8546 0.539551 13.5953V8.33858C0.539551 7.77983 1.14107 7.42772 1.62827 7.70129L21.1764 18.6776C21.4069 18.8069 21.5495 19.0506 21.5495 19.3148V25.0625C21.5495 25.6274 20.936 25.9787 20.4488 25.6929L0.900621 14.2257Z" fill="#00BD9A"/>
<path d="M38.1785 11.7742C38.4021 11.9055 38.5396 12.1454 38.5396 12.4047V17.6614C38.5396 18.2202 37.938 18.5723 37.4508 18.2987L17.9027 7.32243C17.6723 7.19306 17.5296 6.94939 17.5296 6.68514V0.937494C17.5296 0.372611 18.1431 0.0212558 18.6303 0.307075L38.1785 11.7742Z" fill="#00A385"/>
<path d="M37.4821 11.7878C37.968 11.5451 38.5395 11.8985 38.5395 12.4416V17.765C38.5395 18.0244 38.4021 18.2643 38.1784 18.3955L25.7384 25.6929C25.2512 25.9787 24.6377 25.6274 24.6377 25.0625V18.654C24.6377 18.3771 24.7943 18.1239 25.0421 18.0002L37.4821 11.7878Z" fill="#00BD9A"/>
</svg>
